<svg width="33" height="32" viewBox="0 0 33 32" fill="none" xmlns="http://www.w3.org/2000/svg">
<g id="LinkedIn 1" clip-path="url(#clip0_328_1659)">
<path id="Vector" fill-rule="evenodd" clip-rule="evenodd" d="M29.1541 0.898635H3.05717C1.83213 0.884583 0.812294 1.89628 0.797363 3.14046V29.7552C0.811746 31.0001 1.83145 32.0129 3.05717 31.9996H29.1541C30.3828 32.0153 31.4061 31.0025 31.4226 29.7552V3.13865C31.4061 1.89183 30.3814 0.882218 29.1541 0.898635ZM22.3541 27.3987H26.8919L26.8938 19.2566C26.8938 15.2594 26.0458 12.1871 21.4467 12.1871C19.6909 12.1208 17.9744 13.0442 17.0874 14.5844V12.5562H12.7313V27.398H17.269V20.0558C17.269 18.1197 17.6306 16.2446 19.994 16.2446C22.3239 16.2446 22.3541 18.4602 22.3541 20.1812V27.3987ZM9.87998 27.3987H5.33751V12.5562H9.87998V27.3987ZM4.97725 7.85297C4.97725 9.32016 6.16653 10.5273 7.61115 10.5273C9.05549 10.5272 10.2439 9.31931 10.2439 7.85241C10.2437 6.38549 9.05507 5.17846 7.61059 5.17846C6.16597 5.17846 4.97725 6.38578 4.97725 7.85297Z" fill="white"/>
</g>
<defs>
<clipPath id="clip0_328_1659">
<rect width="31.8987" height="31.1013" fill="white" transform="translate(0.797363 0.898438)"/>
</clipPath>
</defs>
</svg>
