<svg width="32" height="32" viewBox="0 0 32 32" fill="none" xmlns="http://www.w3.org/2000/svg">
<g id="Insta 1" clip-path="url(#clip0_328_1657)">
<path id="Vector" d="M9.11023 1.0072C7.45565 1.08526 6.32574 1.34931 5.33796 1.73746C4.31565 2.13586 3.44917 2.67049 2.58704 3.53574C1.72491 4.40098 1.19401 5.26808 0.798395 6.29192C0.415539 7.28192 0.156154 8.41276 0.0830658 10.0683C0.00997765 11.7238 -0.00619506 12.2559 0.0018913 16.4789C0.00997765 20.7018 0.0286385 21.2311 0.10888 22.8901C0.187878 24.5444 0.450995 25.674 0.839138 26.6621C1.23817 27.6844 1.77218 28.5506 2.63773 29.413C3.50328 30.2755 4.36977 30.8051 5.39612 31.2013C6.38514 31.5836 7.51629 31.8442 9.1715 31.9167C10.8267 31.9891 11.3595 32.0059 15.5812 31.9978C19.8029 31.9898 20.3344 31.9711 21.9931 31.8924C23.6517 31.8137 24.7754 31.5487 25.7638 31.1625C26.7861 30.7625 27.6529 30.2294 28.5147 29.3636C29.3765 28.4977 29.9071 27.63 30.3024 26.6055C30.6856 25.6165 30.9459 24.4853 31.0178 22.8314C31.0902 21.1714 31.1073 20.6415 31.0992 16.4192C31.0912 12.1969 31.0722 11.6675 30.9935 10.0092C30.9148 8.35087 30.6514 7.22469 30.2636 6.23593C29.8639 5.21366 29.3305 4.34811 28.4652 3.48504C27.6 2.62198 26.7316 2.0917 25.7075 1.69734C24.7178 1.31448 23.5873 1.05354 21.9321 0.982003C20.2769 0.91047 19.7441 0.89212 15.5209 0.900207C11.2976 0.908293 10.7689 0.926332 9.11023 1.0072ZM9.29187 29.1191C7.77568 29.0532 6.95243 28.8013 6.4038 28.5904C5.67728 28.3105 5.15974 27.9721 4.61298 27.4306C4.06622 26.8891 3.73032 26.3698 3.44668 25.6448C3.23363 25.0962 2.97705 24.2738 2.90614 22.7577C2.82901 21.1189 2.81283 20.6269 2.80382 16.4751C2.7948 12.3234 2.81066 11.832 2.8825 10.1927C2.94719 8.67775 3.20067 7.85356 3.41122 7.30525C3.69113 6.57779 4.02828 6.06117 4.57099 5.51472C5.11371 4.96827 5.63156 4.63175 6.35715 4.34811C6.90515 4.13413 7.72747 3.87972 9.24304 3.80756C10.883 3.72981 11.3744 3.71426 15.5255 3.70524C19.6766 3.69622 20.1693 3.71177 21.8099 3.78393C23.3248 3.84986 24.1493 4.10085 24.697 4.31265C25.4238 4.59256 25.941 4.92877 26.4875 5.47242C27.0339 6.01607 27.3708 6.53207 27.6544 7.25922C27.8687 7.80567 28.1231 8.62767 28.1946 10.1442C28.2727 11.7841 28.2904 12.2759 28.2979 16.4266C28.3054 20.5774 28.2907 21.0704 28.2189 22.7091C28.1527 24.2253 27.9014 25.0489 27.6902 25.5981C27.4103 26.3243 27.0728 26.8422 26.5298 27.3883C25.9868 27.9345 25.4696 28.271 24.7436 28.5546C24.1963 28.7683 23.373 29.0233 21.8587 29.0955C20.2187 29.1726 19.7273 29.1888 15.5747 29.1978C11.422 29.2068 10.9318 29.19 9.29187 29.1191ZM21.9691 8.13783C21.9697 8.5069 22.0798 8.86752 22.2854 9.17407C22.4909 9.48063 22.7828 9.71933 23.1241 9.85996C23.4653 10.0006 23.8406 10.0369 24.2025 9.96425C24.5644 9.89163 24.8966 9.71326 25.1571 9.4518C25.4176 9.19029 25.5948 8.85746 25.6661 8.49534C25.7374 8.13316 25.6998 7.75803 25.5578 7.41726C25.416 7.07655 25.1762 6.78554 24.8689 6.58105C24.5616 6.37662 24.2006 6.26786 23.8314 6.26859C23.3366 6.26963 22.8625 6.46707 22.5133 6.81758C22.164 7.16814 21.9683 7.64301 21.9691 8.13783ZM7.56606 16.4646C7.57477 20.8747 11.1564 24.4418 15.5657 24.4334C19.9749 24.425 23.5444 20.8436 23.536 16.4335C23.5276 12.0233 19.945 8.45537 15.5352 8.46408C11.1253 8.47279 7.55766 12.055 7.56606 16.4646ZM10.367 16.459C10.365 15.4338 10.6671 14.431 11.235 13.5774C11.8029 12.7238 12.6111 12.0578 13.5575 11.6636C14.5039 11.2694 15.546 11.1647 16.5519 11.3627C17.5579 11.5607 18.4824 12.0525 19.2089 12.7761C19.9352 13.4996 20.4307 14.4223 20.6327 15.4274C20.8347 16.4325 20.7342 17.475 20.3437 18.423C19.9532 19.3709 19.2905 20.1818 18.4391 20.7531C17.5878 21.3244 16.5862 21.6303 15.561 21.6324C14.8802 21.6338 14.2059 21.5011 13.5764 21.2419C12.9469 20.9827 12.3747 20.602 11.8924 20.1216C11.4101 19.6411 11.0271 19.0704 10.7654 18.442C10.5037 17.8136 10.3683 17.1397 10.367 16.459Z" fill="white"/>
</g>
<defs>
<clipPath id="clip0_328_1657">
<rect width="31.1013" height="31.1013" fill="white" transform="translate(0 0.898438)"/>
</clipPath>
</defs>
</svg>
